<?xml version="1.0" encoding="utf-8"?>
<!-- Svg Vector Icons : http://www.onlinewebfonts.com/icon -->
<!DOCTYPE svg PUBLIC "-//W3C//DTD SVG 1.1//EN" "http://www.w3.org/Graphics/SVG/1.1/DTD/svg11.dtd">
<svg version="1.1" xmlns="http://www.w3.org/2000/svg" xmlns:xlink="http://www.w3.org/1999/xlink" x="0px" y="0px" viewBox="0 0 1000 1000" enable-background="new 0 0 1000 1000" xml:space="preserve">
<metadata> Svg Vector Icons : http://www.onlinewebfonts.com/icon </metadata>
<g><g fill="#aba7a7" transform="translate(0.000000,511.000000) scale(0.100000,-0.100000)"><path  fill="#aba7a7" d="M3893.6,4983.1c-100.4-59.7-112.3-133.8-112.3-733.6v-571.1l-217.5-90.8l-217.5-88.4l-408.6,406.2c-418.2,413.4-477.9,456.4-607,423c-90.8-21.5-1527-1457.7-1548.5-1546.1c-33.4-131.4,9.6-191.2,423-607l406.2-411l-90.8-217.5l-93.2-217.5H858.7c-602.2,0-676.3-11.9-733.6-117.1c-33.4-64.5-33.4-2138.8,0-2203.3c57.4-105.1,131.4-117.1,733.6-117.1h571.1l88.4-219.9l88.4-222.2l-403.8-406.2c-411-413.4-454-473.1-420.6-604.6c21.5-88.4,1457.7-1524.6,1548.5-1546.1c129.1-33.5,188.8,9.6,602.2,418.2l406.2,403.9l219.9-88.4l222.2-88.4v-568.7c0-602.2,11.9-676.3,117.1-733.6c64.5-33.5,2138.7-33.5,2203.3,0c105.1,57.4,117.1,131.4,117.1,733.6v571.1l222.2,86l219.9,88.4l406.3-403.9c411-408.6,473.1-451.7,604.6-418.2c88.4,21.5,1524.6,1457.7,1546.1,1548.5c33.5,129.1-9.6,188.8-420.6,602.2l-403.9,408.6l88.4,219.9l88.4,219.9h568.7c604.6,0,678.7,12,736,117.1c33.5,64.5,33.5,2138.8,0,2203.3c-57.4,105.1-131.4,117.1-733.6,117.1h-568.8l-93.2,217.5l-90.8,217.5l406.3,411c413.4,415.8,456.4,475.5,423,607c-21.5,88.4-1457.7,1524.6-1546.1,1546.1c-131.4,33.5-191.2-9.6-609.4-423l-408.6-406.2l-217.5,88.4l-217.5,90.8v571.1c0,604.6-11.9,678.7-117.1,736C6037.1,5018.9,3953.3,5016.6,3893.6,4983.1z M5745.6,3960.3c9.6-671.5-4.8-635.6,291.5-733.6c105.2-35.8,291.5-112.3,411-167.3c119.5-57.3,236.6-105.1,258.1-105.1c81.2,0,150.5,57.3,523.3,425.4l375.2,375.2l518.6-520.9l520.9-518.6L8269,2340.1c-365.6-370.4-425.4-444.5-425.4-518.5c0-21.5,47.8-138.6,107.5-262.9c57.4-121.9,133.8-308.3,167.3-411c100.4-298.7,59.7-282,728.8-291.5l573.5-7.2V108.2v-738.4h-559.2c-664.3,0-647.6,4.8-731.2-267.6c-28.7-95.6-105.2-284.4-169.7-420.6c-64.5-133.8-117.1-260.5-117.1-282c0-74.1,62.1-148.1,425.4-518.5l375.2-375.2l-520.9-518.6l-518.6-520.9l-375.2,375.2c-370.4,365.6-444.5,425.4-518.6,425.4c-21.5,0-148.1-52.6-284.4-117.1c-133.8-64.5-322.6-141-418.2-169.7c-272.4-83.6-267.6-66.9-267.6-731.2v-559.2h-738.4h-740.8l-7.2,571.1c-9.5,666.7,2.4,638-265.2,719.3c-95.6,28.7-282,105.1-415.8,169.7c-136.2,64.5-262.9,117.1-284.4,117.1c-74.1,0-148.2-59.7-518.6-425.4l-375.2-375.2l-518.6,520.9l-520.9,518.6l375.2,375.2c365.6,370.4,425.4,444.5,425.4,518.5c0,21.5-52.6,148.2-117.1,284.4c-64.5,133.8-141,320.2-169.7,415.8c-81.2,267.6-52.6,255.7-719.3,265.2l-571.1,7.2v738.4V849l573.5,7.2c669.1,9.6,628.5-7.2,728.8,291.5c33.5,102.8,109.9,289.2,167.3,411c59.7,124.3,107.5,241.4,107.5,262.9c0,74.1-59.7,148.1-425.4,518.5l-375.2,375.2l520.9,518.6l518.6,520.9l375.2-375.2c372.8-368,442.1-425.4,523.3-425.4c21.5,0,138.6,47.8,258.1,105.1c119.5,55,305.9,131.4,411,167.3c296.3,98,282,62.1,291.5,733.6l7.2,571.1H5000h738.4L5745.6,3960.3z"/><path d="M4753.9,2067.7c-391.9-45.4-798.2-236.6-1096.9-518.5c-427.7-403.9-626.1-867.5-623.7-1462.5c0-250.9,9.6-332.2,64.5-509c169.7-564,523.3-989.3,1039.5-1247.4c282-138.6,489.9-186.4,850.7-186.4c372.8-2.4,547.2,35.8,860.3,184C6605.8-1311.3,7062.3-494,6961.9,318.5c-57.3,475.5-227,829.2-564,1168.5c-341.7,346.5-705,523.3-1182.9,583.1C4995.2,2096.4,4990.4,2096.4,4753.9,2067.7z M5430.1,1539.6c492.3-150.5,884.2-554.4,1018-1046.7c57.4-210.3,57.4-585.5,0-776.6c-100.3-339.3-346.5-673.9-630.8-862.7c-74.1-50.2-227-121.9-339.3-162.5c-181.6-64.5-231.8-71.7-477.9-71.7c-231.8,0-303.5,12-466,64.5c-239,78.8-444.5,212.7-626.1,408.6c-270,286.8-396.7,599.8-399.1,982.2c-2.4,286.8,31.1,437.3,157.7,700.2C3970.1,1415.3,4739.5,1747.5,5430.1,1539.6z"/></g></g>
</svg>